<svg
    width="120"
    height="120"
    viewBox="0 0 31.749996 31.749996"
    version="1.1"
    id="svg1"
    xmlns="http://www.w3.org/2000/svg"
>
  <g>
    <circle
       style="fill:#1e1e1e;fill-opacity:1;paint-order:markers stroke fill"
       id="background"
       cx="15.875031"
       cy="15.875"
       r="14.878891" />
    <circle
       style="fill:none;fill-opacity:1;stroke:#ffffff;stroke-width:0.283723;stroke-linecap:round;stroke-linejoin:bevel;stroke-dasharray:5.67447, 5.95818, 5.10701;stroke-dashoffset:4.11398;stroke-opacity:0.7;paint-order:markers stroke fill"
       id="outer-circle"
       cx="15.875024"
       cy="15.90064"
       r="10.962061" />
    <circle
       style="fill:none;fill-opacity:1;stroke:#9a0000;stroke-width:0.87974;stroke-linecap:butt;stroke-linejoin:bevel;stroke-dasharray:7.03792, 1.75948, 14.0758, 4.3987, 4.3987, 26.3922;stroke-dashoffset:0;stroke-opacity:0.6;paint-order:markers stroke fill"
       id="inner-circle"
       cx="15.653546"
       cy="16.026005"
       r="7.1580319" />
    <path
       id="shape"
       style="fill:#72e6ff;fill-opacity:0.898039;stroke-width:0.253288"
       d="M 9.131175,18.727657 C 9.2158232,18.689918 9.3332676,18.709311 9.4065096,18.766053 9.4569755,18.805124 9.4442053,18.889859 9.4794853,18.943054 9.5237988,19.009953 9.5776929,19.076696 9.6485,19.11435 9.8368187,19.214571 10.20455,19.433189 10.277234,19.232733 10.345021,19.045313 9.8603726,19.110676 9.7551312,18.941433 9.689649,18.835892 9.7895353,18.681613 9.736508,18.569372 9.7127025,18.519018 9.6647456,18.477271 9.6128192,18.457018 9.5103691,18.41705 9.3920075,18.440625 9.2829549,18.45516 9.1570877,18.471896 8.9412217,18.432221 8.9158923,18.556616 8.8973706,18.646368 9.0406149,18.741665 9.131175,18.727657 Z M 22.535174,17.270015 C 22.376429,17.491222 22.26517,17.743238 22.11739,17.971944 21.981761,18.181811 21.850694,18.396867 21.687586,18.586342 21.54544,18.75155 21.377941,18.893573 21.213658,19.036702 21.034635,19.192522 20.862433,19.362092 20.656701,19.480583 20.343336,19.661183 19.992353,19.771206 19.64597,19.875541 19.324551,19.972357 18.996308,20.063173 18.661596,20.08798 18.251308,20.118371 17.823109,20.129255 17.429956,20.008086 17.060033,19.894047 16.749679,19.635796 16.429692,19.417908 16.09691,19.191321 15.74418,18.976328 15.477276,18.674738 15.29075,18.464159 15.16145,18.206358 15.042676,17.951417 14.917954,17.683627 14.792536,17.406298 14.754706,17.113405 14.714122,16.799756 14.773288,16.479253 14.824777,16.167254 14.844005,16.051014 14.915363,15.942943 14.913467,15.825257 14.911486,15.706499 14.759654,15.589674 14.812831,15.483482 14.897191,15.315152 15.260764,15.456645 15.342381,15.28704 15.401791,15.163519 15.20104,15.032927 15.213764,14.896544 15.225543,14.769919 15.414115,14.688712 15.397977,14.562611 15.381074,14.429884 15.17794,14.392709 15.121974,14.271069 15.043624,14.100565 15.142724,13.881208 15.063652,13.711003 14.949989,13.466556 14.756862,13.218311 14.502641,13.128256 14.39351,13.089561 14.260205,13.225368 14.157943,13.171006 14.049003,13.113203 14.09097,12.912505 13.990303,12.841254 13.90247,12.779235 13.775567,12.821831 13.670455,12.799155 13.445054,12.750752 13.237509,12.57437 13.008352,12.599579 12.78677,12.624004 12.648231,12.91822 12.425524,12.927422 12.219569,12.935975 12.040956,12.565102 11.863416,12.669749 11.754621,12.733904 11.92351,12.957739 11.834744,13.047715 11.664466,13.220189 11.343705,13.046153 11.11052,13.112212 10.84862,13.186401 10.548501,13.263247 10.380025,13.477023 10.292837,13.587497 10.373762,13.779332 10.284711,13.888387 10.091572,14.124857 9.6633005,14.048997 9.4515773,14.268997 9.3197824,14.406009 9.2504633,14.607093 9.2346191,14.796548 9.2188687,14.984357 9.4426149,15.178772 9.3597077,15.348183 9.2851791,15.500409 8.9606699,15.405643 8.8990028,15.563653 8.8395907,15.715769 9.0708172,15.854174 9.0848118,16.016893 9.091717,16.096966 9.0968416,16.203612 9.0328091,16.25217 8.9394547,16.322915 8.7680125,16.152957 8.6819902,16.232477 8.4690532,16.429267 8.6334432,16.813623 8.6623817,17.102175 8.6837923,17.315277 8.6411488,17.590022 8.8042365,17.72889 8.9160066,17.824023 9.1536541,17.640373 9.2436353,17.756371 9.3227392,17.858194 9.2812528,18.068783 9.1713229,18.13625 8.9934642,18.245616 8.726475,18.100369 8.5696209,17.962604 8.4441568,17.852421 8.411915,17.664853 8.3696319,17.503274 8.2234607,16.945178 8.1110145,16.352339 8.1941873,15.781452 8.3236515,14.892757 8.6307052,13.967404 9.220705,13.290404 9.917241,12.491046 10.947888,11.976293 11.968135,11.687674 12.51427,11.533159 13.124357,11.493136 13.670564,11.647826 14.413727,11.858189 15.08557,12.34568 15.614711,12.908344 15.958447,13.273975 16.193813,13.744111 16.35464,14.219525 16.470442,14.562043 16.566626,14.937622 16.504246,15.293677 16.482911,15.415335 16.371804,15.504745 16.331363,15.621501 16.260816,15.824508 16.344387,16.084196 16.214732,16.255704 16.111797,16.391857 15.788092,16.314728 15.755587,16.482343 15.723772,16.646403 16.107159,16.689958 16.089937,16.856258 16.076173,16.989595 15.779152,16.961307 15.766304,17.094721 15.745064,17.314965 16.173795,17.365937 16.215563,17.583284 16.239336,17.706734 16.055908,17.812795 16.081445,17.935956 16.129707,18.168103 16.370753,18.330408 16.578337,18.445112 16.79094,18.562531 17.125653,18.42 17.290629,18.598209 17.34283,18.654577 17.266276,18.773285 17.321582,18.826745 17.430254,18.931492 17.629826,18.821346 17.772201,18.871337 17.950155,18.933872 18.058103,19.172455 18.246669,19.180062 18.493161,19.189996 18.653633,18.864697 18.897543,18.827429 19.127263,18.792341 19.400072,19.106246 19.581779,18.961315 19.674466,18.887326 19.515615,18.69584 19.592801,18.605712 19.892727,18.255025 20.610557,18.658071 20.95309,18.348826 21.127242,18.191489 20.980338,17.832478 21.152819,17.673783 21.291049,17.547049 21.605415,17.72077 21.704025,17.561171 21.76565,17.461485 21.545182,17.317527 21.612476,17.221492 21.667013,17.143897 21.830327,17.265554 21.896212,17.197255 22.010661,17.078616 21.802208,16.818372 21.920269,16.703268 22.010342,16.615479 22.257449,16.813815 22.297686,16.694691 22.354842,16.524593 21.8379,16.534236 21.876928,16.359121 21.91889,16.170884 22.37435,16.40645 22.439662,16.224962 22.52905,15.976921 21.826254,15.81788 21.96386,15.592919 22.05662,15.441343 22.359123,15.805865 22.489144,15.684639 22.585098,15.59512 22.364756,15.393911 22.44875,15.293022 22.509453,15.220174 22.67529,15.346179 22.732489,15.27046 22.813077,15.163691 22.675356,15.008948 22.653598,14.877014 22.615237,14.643341 22.692215,14.370908 22.563083,14.172441 22.44152,13.985653 22.036186,14.044189 21.991363,13.825891 21.954212,13.645175 22.369185,13.551306 22.312969,13.375649 22.228852,13.112333 21.595961,13.37358 21.529079,13.105367 21.50633,13.014285 21.731763,12.992629 21.720991,12.899411 21.687477,12.610482 20.859586,12.67087 20.995829,12.413959 21.124636,12.171178 21.520428,12.588943 21.759792,12.724017 21.94145,12.826458 22.11132,12.953298 22.261094,13.098598 22.384485,13.218296 22.505518,13.348258 22.582242,13.502126 22.688613,13.715501 22.705011,13.962861 22.761266,14.194565 22.862887,14.612894 23.040232,15.023489 23.047491,15.453909 23.053977,15.839054 22.943081,16.220743 22.829577,16.588947 22.756815,16.825302 22.653512,17.052775 22.534822,17.269801 V 17.269801 L 22.534696,17.269866 Z" />
  </g>
</svg>
