<svg
    width="120"
    height="120"
    viewBox="0 0 31.749996 31.749996"
    version="1.1"
    id="svg1"
    xmlns="http://www.w3.org/2000/svg"
>
  <g>
    <circle
       style="fill:#1e1e1e;fill-opacity:1;paint-order:markers stroke fill"
       id="background"
       cx="15.875031"
       cy="15.875"
       r="14.878891" />
    <circle
       style="fill:none;fill-opacity:1;stroke:#ffffff;stroke-width:0.283723;stroke-linecap:round;stroke-linejoin:bevel;stroke-dasharray:5.67447, 5.95818, 5.10701;stroke-dashoffset:4.11398;stroke-opacity:0.7;paint-order:markers stroke fill"
       id="outer-circle"
       cx="15.875024"
       cy="15.90064"
       r="10.962061" />
    <circle
       style="fill:none;fill-opacity:1;stroke:#9a0000;stroke-width:0.87974;stroke-linecap:butt;stroke-linejoin:bevel;stroke-dasharray:7.03792, 1.75948, 14.0758, 4.3987, 4.3987, 26.3922;stroke-dashoffset:0;stroke-opacity:0.6;paint-order:markers stroke fill"
       id="inner-circle"
       cx="15.653546"
       cy="16.026005"
       r="7.1580319" />
    <path
       style="fill:#72e6ff;fill-opacity:0.898039;stroke-width:0.332807"
       d="M 19.856827,10.224167 C 20.053596,10.392989 20.222636,10.592611 20.390279,10.790622 20.512822,10.935205 20.625138,11.088436 20.734524,11.243197 20.893782,11.468207 21.035826,11.704937 21.188446,11.934424 21.304645,12.108991 21.48744,12.253169 21.540235,12.456154 21.615338,12.744415 21.474688,13.048531 21.46537,13.346116 21.456661,13.620058 21.493909,13.894421 21.482414,14.168232 21.464237,14.600875 21.473633,15.046287 21.346413,15.459842 21.253059,15.763416 21.08552,16.044188 20.896381,16.299025 20.674393,16.59815 20.421896,16.89108 20.106918,17.089394 19.915808,17.209749 19.671494,17.21633 19.467927,17.313844 19.204963,17.439787 19.003702,17.69049 18.724713,17.775418 18.414835,17.86984 18.07574,17.842821 17.753125,17.810126 17.445897,17.77928 17.145499,17.690497 16.852084,17.593495 16.565778,17.498762 16.27226,17.403829 16.019392,17.238905 15.86268,17.136684 15.795451,16.834762 15.609779,16.854588 15.474605,16.868919 15.511984,17.165097 15.378584,17.190987 15.278324,17.21035 15.223219,17.004816 15.12251,17.021752 14.958064,17.049431 14.927184,17.292759 14.818793,17.419615 14.686304,17.574532 14.5052,17.689144 14.396228,17.861463 14.307918,18.001123 14.212742,18.15939 14.219343,18.324707 14.230056,18.593607 14.630049,18.792728 14.566566,19.054065 14.53667,19.177032 14.246359,19.157148 14.264169,19.28262 14.279346,19.390031 14.507206,19.309426 14.567203,19.399762 14.723872,19.635844 14.387168,20.012006 14.542292,20.249067 14.705292,20.498101 15.247445,20.30976 15.369442,20.581148 15.426801,20.708715 15.15368,20.857304 15.22819,20.975626 15.322239,21.124931 15.609009,20.928015 15.753598,21.029193 15.91187,21.139802 15.884761,21.401286 16.008026,21.550016 16.148599,21.71976 16.319518,21.916617 16.537458,21.945128 16.734896,21.970966 16.897862,21.675313 17.091281,21.72256 17.299236,21.773389 17.308284,22.141509 17.511027,22.210059 17.913729,22.345997 18.387462,21.733114 18.756332,21.944536 18.87511,22.012581 18.754951,22.297747 18.88671,22.334418 19.194307,22.420212 19.306047,21.624563 19.613339,21.711415 19.759632,21.7527 19.61262,22.092774 19.755144,22.14566 20.156703,22.294789 20.627314,21.842438 20.850248,21.476907 20.951533,21.310921 20.753629,21.029259 20.893447,20.894195 21.006675,20.784874 21.28347,21.011228 21.365407,20.876638 21.447698,20.741498 21.108489,20.593401 21.164741,20.445438 21.211751,20.322087 21.428366,20.203077 21.528052,20.289726 21.777376,20.506387 21.425255,20.954221 21.272438,21.246587 21.169447,21.443738 21.001122,21.600825 20.841501,21.755591 20.648936,21.942403 20.428554,22.098655 20.211601,22.256313 20.021363,22.394599 19.842273,22.560079 19.623386,22.646162 18.975327,22.901078 18.25869,22.997432 17.562049,22.987879 17.023604,22.980519 16.46606,22.903521 15.975214,22.680287 15.191108,22.32369 14.386015,21.826286 13.935156,21.090784 13.374288,20.175872 13.159943,18.989968 13.32338,17.930152 13.400723,17.428848 13.722152,16.981221 14.049302,16.594797 14.39177,16.190047 15.068391,16.092061 15.30167,15.61552 15.410232,15.394022 15.424755,15.090971 15.305304,14.874723 15.248331,14.771521 15.049107,14.797553 15.005371,14.688075 14.96357,14.583551 15.101489,14.473598 15.090071,14.36169 15.076406,14.227355 14.994471,14.104632 14.911686,13.998058 14.78218,13.831111 14.627655,13.660508 14.430125,13.586593 14.327043,13.548064 14.193093,13.643305 14.100456,13.583954 13.981707,13.507978 14.049974,13.254396 13.919551,13.201322 13.833463,13.166332 13.751599,13.304723 13.658824,13.299341 13.413533,13.28491 13.240888,13.022637 13.002869,12.960833 12.880539,12.92908 12.746514,12.917965 12.624109,12.949029 12.47597,12.9867 12.380135,13.197855 12.228127,13.180521 12.105622,13.166496 12.080626,12.913964 11.957911,12.926526 11.752327,12.947534 11.772715,13.318118 11.602197,13.434855 11.225121,13.693067 10.597831,13.441768 10.270642,13.761164 10.123657,13.904671 10.289702,14.25997 10.108568,14.356875 9.9630178,14.434751 9.7956698,14.148467 9.6384447,14.198997 9.4029057,14.274711 9.2386222,14.555979 9.203827,14.801556 9.1734645,15.0159 9.5187189,15.220432 9.4219193,15.413767 9.3340929,15.589312 8.9237315,15.400399 8.859817,15.586097 8.7966337,15.76946 9.2111478,15.871876 9.1916967,16.065043 9.1703009,16.277659 8.8077388,16.308296 8.7289423,16.506614 8.6017325,16.826984 8.5775254,17.262909 8.7824759,17.540568 8.8601028,17.645809 9.0701372,17.571531 9.1502753,17.674871 9.2714997,17.831016 9.0831356,18.11306 9.2095244,18.265081 9.2933728,18.365989 9.4940679,18.281942 9.5868115,18.374643 9.6852018,18.473057 9.623871,18.661484 9.7036888,18.775565 9.8722278,19.016218 10.556223,19.040017 10.413975,19.296414 10.246243,19.598828 9.7200098,19.125448 9.4526959,18.905348 8.9357895,18.479835 8.5625716,17.860076 8.3509982,17.224351 8.1976681,16.763672 8.2032431,16.25281 8.260256,15.771055 8.2980688,15.451346 8.416895,15.143972 8.5436893,14.848356 8.7022504,14.478702 8.8911908,14.116492 9.1351656,13.797133 9.4442373,13.392452 9.8329218,13.052243 10.222354,12.724624 10.427069,12.552445 10.640744,12.386674 10.875181,12.257941 11.092386,12.138666 11.323551,12.037753 11.564467,11.979827 11.745908,11.936227 11.935952,11.941598 12.122331,11.930864 12.337304,11.917457 12.552949,11.907688 12.768427,11.9106 12.964665,11.913186 13.162051,11.915964 13.356287,11.944699 13.537179,11.971481 13.714717,12.020122 13.889884,12.072811 14.058909,12.123648 14.228444,12.177521 14.387698,12.253847 14.557419,12.335194 14.717039,12.43774 14.870714,12.546547 15.034093,12.661997 15.195501,12.783411 15.335065,12.926692 15.463174,13.058153 15.559831,13.217079 15.672631,13.361817 15.799696,13.52489 15.937943,13.679631 16.054953,13.849996 16.130346,13.959684 16.211616,14.068574 16.259892,14.192625 16.335087,14.385429 16.353523,14.596093 16.385819,14.800526 16.416635,14.996354 16.418867,15.195987 16.450293,15.391754 16.498944,15.695858 16.390408,16.118548 16.642023,16.295543 16.741366,16.365442 16.898614,16.181878 17.002135,16.245281 17.104353,16.307992 17.005714,16.550627 17.12046,16.585614 17.339148,16.652353 17.44754,16.106221 17.666716,16.171674 17.833585,16.221491 17.691981,16.579657 17.844537,16.663967 18.044928,16.774661 18.285392,16.516408 18.514017,16.516246 18.605032,16.516349 18.69343,16.600015 18.780763,16.574644 19.086982,16.48574 19.200897,16.085983 19.46059,15.900752 19.616376,15.789719 19.857229,15.7978 19.97536,15.64721 20.131108,15.44866 20.035168,15.136961 20.139487,14.906935 20.205604,14.761067 20.403107,14.678885 20.423549,14.52001 20.444021,14.360409 20.213539,14.228239 20.245921,14.070633 20.278606,13.911965 20.531003,13.878418 20.588556,13.727029 20.694908,13.447579 20.690439,13.088264 20.538267,12.830416 20.480106,12.731762 20.294637,12.752597 20.247711,12.648178 20.14589,12.421299 20.417722,12.157312 20.371163,11.913027 20.335182,11.724104 20.229063,11.531222 20.072997,11.419052 19.920696,11.309591 19.632388,11.451163 19.524353,11.297604 19.406388,11.13001 19.750252,10.828396 19.601089,10.68773 19.460889,10.555531 19.178118,10.923585 19.034393,10.79514 18.867449,10.646173 19.196821,10.317805 19.082039,10.12559 18.920495,9.8551985 18.467894,9.9347475 18.221296,9.7391265 18.1462,9.6795535 18.140506,9.5294348 18.04667,9.5104025 17.800075,9.4603754 17.633038,9.9604255 17.392615,9.8858875 17.223426,9.8334215 17.335261,9.4334102 17.160132,9.4067377 16.942657,9.3736504 16.930064,9.8814925 16.710218,9.8893155 16.633949,9.8918475 16.614927,9.7553045 16.541747,9.7333055 16.391589,9.6882915 16.224779,9.7549235 16.078235,9.8105565 15.906411,9.8753135 15.720628,10.248739 15.610126,10.101297 15.52145,9.9830625 15.822066,9.8956475 15.938311,9.8051635 16.070274,9.7023995 16.196508,9.5783304 16.355459,9.5265765 16.44578,9.4971985 16.54703,9.5328235 16.640255,9.5149941 16.922347,9.4610544 17.167516,9.2590107 17.453242,9.230056 17.852851,9.1895527 18.272771,9.2472108 18.64783,9.3922544 19.103782,9.5686195 19.485459,9.9058105 19.856858,10.224472 Z"
       id="shape" />
  </g>
</svg>
