<svg
    width="120"
    height="120"
    viewBox="0 0 31.749996 31.749996"
    version="1.1"
    id="svg1"
    xmlns="http://www.w3.org/2000/svg"
>
  <g>
    <circle
       style="fill:#1e1e1e;fill-opacity:1;paint-order:markers stroke fill"
       id="background"
       cx="15.875031"
       cy="15.875"
       r="14.878891" />
    <circle
       style="fill:none;fill-opacity:1;stroke:#ffffff;stroke-width:0.283723;stroke-linecap:round;stroke-linejoin:bevel;stroke-dasharray:5.67447, 5.95818, 5.10701;stroke-dashoffset:4.11398;stroke-opacity:0.7;paint-order:markers stroke fill"
       id="outer-circle"
       cx="15.875024"
       cy="15.90064"
       r="10.962061" />
    <circle
       style="fill:none;fill-opacity:1;stroke:#9a0000;stroke-width:0.87974;stroke-linecap:butt;stroke-linejoin:bevel;stroke-dasharray:7.03792, 1.75948, 14.0758, 4.3987, 4.3987, 26.3922;stroke-dashoffset:0;stroke-opacity:0.6;paint-order:markers stroke fill"
       id="inner-circle"
       cx="15.653546"
       cy="16.026005"
       r="7.1580319" />
    <path
       style="color:#000000;fill:#72e6ff;fill-opacity:0.9;stroke-width:0.264583;stroke-linecap:round;-inkscape-stroke:none"
       d="M 20.197063,16.594215 C 20.384454,16.392394 20.439921,16.108535 20.517089,15.684137 20.594222,15.259601 20.658386,14.928904 20.555473,14.405346 20.45251,13.881875 19.92023,13.086469 19.49757,12.682443 19.075047,12.278381 18.974725,12.218364 18.543917,11.946598 18.113196,11.674883 17.493618,11.376077 16.967791,11.281488 16.441963,11.186898 15.858168,11.296441 15.445328,11.447383 15.032487,11.598325 14.77656,11.746025 14.483639,11.935439 14.190631,12.124803 13.928726,12.294154 13.636412,12.50862 13.344147,12.722999 13.126359,12.875452 12.773592,13.274968 12.420875,13.674398 12.003477,14.19692 11.770004,14.947812 11.536481,15.698789 11.458092,17.034108 11.596975,17.709781 11.735857,18.385455 12.005254,18.642636 12.215591,18.933688 12.425877,19.224826 12.573603,19.357988 12.768419,19.488748 12.96332,19.619558 13.224876,19.932196 13.345111,19.729235 13.465346,19.526273 12.777718,19.40551 12.727541,19.23532 12.677313,19.065216 12.853523,19.083034 12.814121,18.976092 12.774719,18.869151 12.581581,18.856474 12.462502,18.764004 12.343424,18.671533 12.100808,18.568496 12.110364,18.417236 12.11992,18.265976 12.449949,18.291952 12.440389,18.165765 12.430829,18.039579 12.234265,18.086689 12.137924,18.000717 12.041669,17.914797 11.937757,17.828094 11.890769,17.649109 11.843781,17.470123 11.857404,17.301655 11.878936,17.110813 11.900519,16.919885 11.906129,16.829497 11.991167,16.640088 12.076291,16.45073 12.445374,16.328723 12.459158,16.133104 12.472943,15.937485 12.15819,15.924993 12.182317,15.732891 12.206494,15.540702 12.653723,15.475209 12.691891,15.289606 12.730059,15.104003 12.444602,15.126553 12.491562,14.873993 12.538521,14.621433 12.755061,14.498972 13.004834,14.304648 13.254694,14.110376 13.456689,13.99828 13.648126,13.787586 13.839614,13.576806 13.878959,13.378328 14.075569,13.234899 14.271784,13.091355 14.557716,13.014243 14.789469,12.97375 15.021273,12.933171 15.304005,13.099048 15.441105,12.97682 15.578205,12.854593 15.341474,12.63501 15.490482,12.529044 15.63944,12.423164 15.883338,12.689618 16.120372,12.673324 16.357492,12.657081 16.605971,12.430578 16.849404,12.397053 17.0927,12.363564 17.310342,12.623193 17.483418,12.67975 17.656443,12.736394 17.744171,12.677372 17.872571,12.763834 18.000886,12.850245 18.012157,13.098013 18.171344,13.201957 18.330617,13.305952 18.631723,13.205744 18.771623,13.313908 18.911558,13.422209 19.097166,13.645536 19.144884,13.837703 19.192602,14.02987 19.083183,14.185149 19.124754,14.331275 19.166361,14.477538 19.297212,14.185735 19.333132,14.510455 19.369052,14.835176 19.222326,14.96393 19.272243,15.247008 19.322109,15.530172 19.418578,15.441034 19.363414,15.630114 19.308249,15.819195 18.971123,15.83891 18.891357,15.992456 18.811678,16.146053 18.960477,16.365523 19.009933,16.455524 19.05939,16.545524 19.283025,16.694351 19.469594,16.769607 19.656299,16.844827 20.112277,16.685571 20.197063,16.594215 20.281899,16.502773 20.009722,16.795951 20.197063,16.594215 Z"
       id="shape" />
  </g>
</svg>
