<svg
    width="120"
    height="120"
    viewBox="0 0 31.749996 31.749996"
    version="1.1"
    id="svg1"
    xmlns="http://www.w3.org/2000/svg"
>
  <g>
    <circle
       style="fill:#1e1e1e;fill-opacity:1;paint-order:markers stroke fill"
       id="background"
       cx="15.875031"
       cy="15.875"
       r="14.878891" />
    <circle
       style="fill:none;fill-opacity:1;stroke:#ffffff;stroke-width:0.283723;stroke-linecap:round;stroke-linejoin:bevel;stroke-dasharray:5.67447, 5.95818, 5.10701;stroke-dashoffset:4.11398;stroke-opacity:0.7;paint-order:markers stroke fill"
       id="outer-circle"
       cx="15.875024"
       cy="15.90064"
       r="10.962061" />
    <circle
       style="fill:none;fill-opacity:1;stroke:#9a0000;stroke-width:0.87974;stroke-linecap:butt;stroke-linejoin:bevel;stroke-dasharray:7.03792, 1.75948, 14.0758, 4.3987, 4.3987, 26.3922;stroke-dashoffset:0;stroke-opacity:0.6;paint-order:markers stroke fill"
       id="inner-circle"
       cx="15.653546"
       cy="16.026005"
       r="7.1580319" />
    <path
       id="shape"
       style="fill:#72e6ff;fill-opacity:0.898039;stroke-width:0.264583"
       d="M 18.939243,18.30336 C 18.964064,18.308 18.990105,18.315391 19.009421,18.331678 19.040055,18.357489 19.056182,18.397434 19.072763,18.433957 19.102263,18.498652 19.117299,18.569173 19.136059,18.637832 19.148877,18.684625 19.188462,18.734775 19.169663,18.779522 19.139063,18.8525 18.96835,18.82319 18.966636,18.902236 18.963641,19.019072 19.163234,19.028626 19.258139,19.096721 19.357174,19.167742 19.439841,19.263186 19.547772,19.319913 19.605217,19.350078 19.681115,19.418388 19.733093,19.379424 19.790311,19.336633 19.75358,19.231711 19.727904,19.16515 19.701585,19.097616 19.622449,19.063476 19.585055,19.001422 19.543782,18.932928 19.544055,18.843634 19.499079,18.777501 19.471515,18.736945 19.418385,18.718706 19.390821,18.67815 19.347343,18.614255 19.350465,18.52604 19.307764,18.461611 19.283573,18.425014 19.238323,18.406136 19.213059,18.370186 19.184387,18.329477 19.178194,18.276094 19.151565,18.233996 19.097878,18.149119 19.053014,18.031934 18.956451,18.004548 18.909543,17.991346 18.834319,18.004082 18.817265,18.049855 18.798854,18.098989 18.876068,18.137315 18.898328,18.184905 18.915968,18.222784 18.897717,18.310647 18.939443,18.303351 V 18.303351 18.303351 Z M 18.261386,17.072983 C 18.214695,16.997214 18.073704,17.023781 18.024576,16.949519 17.83105,16.656744 17.973816,16.249251 17.942205,15.899685 17.934385,15.810738 17.975333,15.69898 17.914954,15.633108 17.851215,15.563575 17.730801,15.58916 17.636908,15.579675 17.470436,15.562895 17.239307,15.704832 17.134808,15.57409 16.972765,15.371249 17.328694,15.070318 17.297916,14.8125 17.269644,14.575794 17.123236,14.364075 16.987607,14.168007 16.89167,14.029192 16.761257,13.917379 16.638584,13.80163 16.309057,13.490768 15.9522,13.210105 15.601775,12.92306 15.380915,12.74206 15.189533,12.51095 14.930269,12.391353 14.754534,12.31031 14.553879,12.289992 14.360624,12.278864 14.069939,12.262108 13.771505,12.27471 13.489707,12.348456 13.269473,12.406048 13.072027,12.530525 12.869393,12.634406 12.707111,12.717637 12.540219,12.796063 12.393217,12.904162 12.294338,12.976767 12.178377,13.0455 12.124352,13.155717 12.017966,13.372977 12.027451,13.638414 12.057766,13.878435 12.084147,14.087397 12.109304,14.337848 12.270365,14.47347 12.419278,14.598903 12.654848,14.611818 12.845789,14.573699 12.962401,14.55048 13.068738,14.47205 13.146764,14.382324 13.225837,14.291351 13.19176,14.112948 13.296399,14.053308 13.351014,14.022138 13.435001,14.03405 13.483941,14.073588 13.600477,14.16758 13.482422,14.455805 13.625448,14.500015 13.778111,14.547215 13.849795,14.23966 14.006647,14.20951 14.122199,14.187237 14.267705,14.216928 14.34681,14.304017 14.431073,14.396991 14.300286,14.617099 14.411661,14.674779 14.591315,14.767864 14.758058,14.4223 14.960232,14.415028 15.174104,14.407455 15.382856,14.525516 15.55845,14.647602 15.685244,14.735749 15.803269,14.852798 15.866068,14.993736 15.916125,15.105993 15.808861,15.286456 15.907213,15.360209 16.00701,15.435 16.180655,15.215356 16.275702,15.296056 16.307695,15.32321 16.251272,15.386887 16.274091,15.421841 16.315273,15.483533 16.434225,15.447201 16.480257,15.505281 16.563648,15.610604 16.561201,15.770556 16.542086,15.903597 16.530136,15.986686 16.384142,16.064615 16.43486,16.131603 16.535006,16.263532 16.786757,16.140328 16.924862,16.048825 16.996009,16.001732 16.987613,15.873675 17.062643,15.833121 17.172787,15.773446 17.313559,15.82576 17.438347,15.836822 17.530182,15.844994 17.668034,15.801245 17.711068,15.882776 17.82362,16.096248 17.314426,16.317275 17.407257,16.540001 17.439616,16.617685 17.607197,16.550641 17.644562,16.626009 17.707351,16.752734 17.580822,16.904096 17.518399,17.030888 17.483134,17.102466 17.356969,17.150317 17.380459,17.22658 17.407336,17.314109 17.546334,17.315753 17.637643,17.323346 17.734078,17.331421 17.825688,17.269037 17.922511,17.267485 18.036435,17.265601 18.173039,17.395766 18.25996,17.322073 18.323314,17.268308 18.280464,17.153739 18.260886,17.073004 V 17.073004 17.073004 Z" />
  </g>
</svg>
