<svg
    width="120"
    height="120"
    viewBox="0 0 31.749996 31.749996"
    version="1.1"
    id="svg1"
    xmlns="http://www.w3.org/2000/svg"
>
  <g>
    <circle
       style="fill:#1e1e1e;fill-opacity:1;paint-order:markers stroke fill"
       id="background"
       cx="15.875031"
       cy="15.875"
       r="14.878891" />
    <circle
       style="fill:none;fill-opacity:1;stroke:#ffffff;stroke-width:0.283723;stroke-linecap:round;stroke-linejoin:bevel;stroke-dasharray:5.67447, 5.95818, 5.10701;stroke-dashoffset:4.11398;stroke-opacity:0.7;paint-order:markers stroke fill"
       id="outer-circle"
       cx="15.875024"
       cy="15.90064"
       r="10.962061" />
    <circle
       style="fill:none;fill-opacity:1;stroke:#9a0000;stroke-width:0.87974;stroke-linecap:butt;stroke-linejoin:bevel;stroke-dasharray:7.03792, 1.75948, 14.0758, 4.3987, 4.3987, 26.3922;stroke-dashoffset:0;stroke-opacity:0.6;paint-order:markers stroke fill"
       id="inner-circle"
       cx="15.653546"
       cy="16.026005"
       r="7.1580319" />
    <path
       id="shape"
       style="fill:#72e6ff;fill-opacity:0.898039;stroke-width:0.263998"
       d="M 13.957413,10.948293 C 14.027702,10.998264 14.291021,11.325828 14.322132,11.257371 14.353315,11.189037 14.216651,10.991996 14.15524,10.948323 14.0938,10.904749 13.720688,10.674088 13.665619,10.745876 13.610577,10.817566 13.887101,10.898418 13.957413,10.948293 Z M 12.10531,11.913306 C 12.013716,12.174489 11.820615,12.386947 11.681254,12.625459 11.585102,12.789923 11.444634,12.936351 11.396799,13.121148 11.359184,13.266795 11.47084,13.439158 11.402846,13.573065 11.356941,13.663419 11.171719,13.647111 11.155162,13.74735 11.133791,13.876622 11.405347,13.936466 11.384672,14.065836 11.364051,14.194281 11.10775,14.167773 11.069994,14.292133 11.004653,14.507419 11.236527,14.711069 11.303397,14.926193 11.364584,15.123229 11.393173,15.329759 11.456403,15.526131 11.55686,15.838291 11.643134,16.163147 11.814972,16.441947 11.935576,16.637712 12.098966,16.807844 12.275438,16.954443 12.514801,17.153472 12.779299,17.336075 13.071728,17.439825 13.302721,17.521772 13.554862,17.533232 13.799424,17.537828 13.942681,17.540629 14.08492,17.51345 14.227208,17.496808 14.469324,17.468413 14.72556,17.488132 14.951689,17.396504 15.123452,17.32687 15.279278,17.207868 15.401091,17.067229 15.498527,16.954693 15.510963,16.782024 15.611684,16.672514 15.700948,16.575547 15.813634,16.478639 15.94351,16.458744 16.212851,16.417542 16.526786,16.495698 16.732907,16.676227 16.889255,16.813193 16.907258,17.055744 16.979326,17.251527 17.128034,17.655557 17.299479,18.059134 17.362009,18.485188 17.401103,18.75129 17.530968,19.090851 17.354498,19.291834 17.263593,19.395414 17.038306,19.242819 16.946415,19.345489 16.864092,19.437574 16.976575,19.600695 16.935876,19.717856 16.863904,19.925095 16.719027,20.114631 16.54309,20.243896 16.36752,20.372956 16.089953,20.3143 15.927233,20.459445 15.810453,20.563615 15.852577,20.798924 15.720899,20.882881 15.451596,21.054711 14.993802,20.67339 14.764274,20.896118 14.691726,20.966533 14.835394,21.14996 14.748265,21.200878 14.537765,21.323761 14.30589,20.744821 14.0958,20.868449 13.999144,20.925379 14.175604,21.148118 14.080345,21.207428 13.790719,21.387692 13.433374,20.97282 13.145661,20.787929 12.875682,20.614587 12.666842,19.946955 12.421048,20.152512 12.229175,20.31293 12.630511,20.619188 12.798947,20.805249 12.913477,20.931876 13.066974,21.017716 13.213911,21.103756 13.391029,21.207419 13.582377,21.284544 13.771633,21.363257 13.937295,21.432173 14.099445,21.522892 14.276612,21.549178 14.793506,21.625613 15.355708,21.651516 15.84049,21.456454 16.625796,21.1404 17.425004,20.581789 17.778865,19.806777 18.210767,18.860432 18.159409,17.640867 17.760082,16.678037 17.672602,16.467203 17.464211,16.325083 17.279004,16.193475 16.936485,15.950143 16.45927,15.92864 16.14344,15.650784 16.006274,15.530156 15.827075,15.372253 15.844743,15.189734 15.853123,15.103605 15.997853,15.086725 16.024746,15.004557 16.079073,14.839748 15.912939,14.656538 15.953791,14.487859 15.990652,14.337516 16.091761,14.193745 16.220366,14.109324 16.320146,14.04381 16.470262,14.102222 16.570481,14.037355 16.756721,13.916674 16.766046,13.599995 16.962124,13.496199 17.251012,13.343325 17.662808,13.641338 17.94128,13.469953 18.028347,13.416312 17.994329,13.23843 18.088537,13.199127 18.467903,13.040984 18.94745,13.29314 19.272082,13.548004 19.39495,13.644424 19.358476,13.916017 19.509492,13.953857 19.627207,13.983383 19.701422,13.730438 19.818707,13.761508 20.081087,13.830904 20.083495,14.239696 20.214877,14.479278 20.404058,14.824203 20.660981,15.139933 20.779469,15.51539 20.864727,15.785895 21.095717,16.186258 20.874933,16.36108 20.764996,16.448157 20.575046,16.110407 20.480774,16.214581 20.324642,16.387135 20.930045,16.672199 20.779165,16.849595 20.713529,16.926681 20.569029,16.699684 20.489208,16.761759 20.380382,16.846341 20.38402,17.108515 20.503183,17.177934 20.588611,17.227668 20.70065,17.113492 20.763451,17.036945 21.071671,16.661616 21.21382,16.129444 21.199559,15.641525 21.184056,15.109293 20.93159,14.589233 20.635908,14.147693 20.573755,14.054957 20.459758,14.008061 20.391523,13.919723 20.268069,13.760014 20.242382,13.532028 20.102851,13.386243 19.832524,13.104058 19.447135,12.96091 19.098487,12.787165 18.9156,12.696012 18.727716,12.610923 18.531149,12.556152 18.350339,12.505593 18.16272,12.470162 17.97527,12.468108 17.835784,12.466599 17.700155,12.520362 17.56077,12.524401 17.414359,12.52882 17.265626,12.460285 17.122487,12.491057 16.954197,12.527213 16.815307,12.648055 16.668563,12.738621 16.526095,12.826459 16.362595,12.895342 16.256024,13.025046 16.186756,13.109214 16.207773,13.255656 16.12416,13.325394 16.010009,13.420527 15.786644,13.312023 15.691232,13.426183 15.628197,13.501724 15.713134,13.631523 15.674444,13.722282 15.597457,13.902768 15.350374,13.970361 15.273619,14.151124 15.208882,14.30367 15.319432,14.499568 15.247208,14.648612 15.20221,14.741624 15.039669,14.751306 15.014912,14.851692 14.981164,14.9872 15.13055,15.107692 15.164735,15.243228 15.202517,15.393234 15.211946,15.549369 15.22415,15.703697 15.234539,15.83386 15.307635,15.986817 15.235913,16.095279 15.15097,16.223693 14.875656,16.121523 14.806776,16.25934 14.749167,16.374563 14.997658,16.538715 14.910213,16.632873 14.789837,16.762467 14.533859,16.415656 14.392818,16.522026 14.290256,16.599342 14.468086,16.835284 14.362905,16.909037 13.993281,17.167891 13.456278,16.756328 13.063019,16.53384 12.783885,16.375889 12.500767,16.166067 12.355975,15.878053 12.247239,15.661635 12.370403,15.378373 12.276156,15.155179 12.183464,14.935662 11.888397,14.833964 11.822012,14.604919 11.729855,14.286706 11.947659,13.950411 11.945802,13.619066 11.945002,13.484885 11.85591,13.349626 11.891018,13.220338 11.944682,13.020968 12.155026,12.904185 12.274125,12.73631 12.534047,12.370131 12.656376,11.89039 12.995901,11.598107 13.177979,11.441334 13.706315,11.544803 13.654217,11.308608 13.582012,10.981437 12.962486,11.197183 12.658858,11.331868 12.414982,11.440065 12.055637,11.648851 12.105404,11.913332 L 12.1055,11.913361 V 11.913361 L 12.105404,11.913332 12.105475,11.913457 Z M 18.655851,19.964308 C 18.865043,19.961353 18.922703,20.300284 19.099717,20.413186 19.205489,20.480638 19.330175,20.518102 19.453237,20.539583 19.678956,20.579078 19.927031,20.62541 20.140256,20.541537 20.267753,20.491377 20.328161,20.337691 20.441473,20.260335 20.576533,20.167976 20.752434,20.146295 20.883344,20.048057 21.026855,19.940418 21.132854,19.788676 21.243711,19.647077 21.536068,19.273649 21.775713,18.861027 22.043459,18.469181 22.274523,18.13107 22.598525,17.842348 22.739655,17.456957 22.836108,17.193524 22.806685,16.898741 22.824283,16.618185 22.844108,16.300877 22.868299,15.981801 22.847667,15.664437 22.827446,15.353131 22.765113,15.045461 22.703896,14.739569 22.636549,14.402961 22.560247,14.067219 22.458352,13.739441 22.354434,13.404936 22.252096,13.065154 22.086433,12.756878 21.94091,12.486256 21.746455,12.243666 21.547606,12.010157 21.376971,11.809789 21.192136,11.619604 20.989247,11.452628 20.846708,11.335333 20.684875,11.244226 20.530303,11.143756 20.392774,11.054344 20.224057,10.761054 20.113375,10.882192 19.997171,11.009424 20.32245,11.157803 20.419841,11.300675 20.523984,11.45337 20.590007,11.634951 20.716687,11.769087 20.883367,11.94555 21.132587,12.02398 21.307632,12.19194 21.478298,12.355621 21.618206,12.551404 21.74477,12.751692 21.846498,12.912662 21.929837,13.085851 22.0009,13.262703 22.061301,13.413059 22.230211,13.590401 22.144563,13.727258 22.074367,13.839491 21.796814,13.657412 21.753797,13.782865 21.673665,14.016717 22.229785,14.075455 22.262232,14.321008 22.274485,14.413478 22.135032,14.473538 22.129839,14.566727 22.111975,14.883662 22.620094,15.164959 22.483624,15.450755 22.436164,15.550352 22.211622,15.442968 22.168421,15.54462 22.079297,15.754121 22.589723,15.957856 22.476591,16.155255 22.42277,16.24917 22.21778,16.083655 22.154177,16.171116 22.025534,16.348021 22.492128,16.676768 22.318938,16.80953 22.220748,16.884873 22.095856,16.545805 21.998295,16.62185 21.853706,16.734598 22.217703,16.986598 22.145135,17.155855 22.095928,17.270571 21.859259,17.212516 21.815781,17.329608 21.748927,17.509671 22.162635,17.737717 22.022869,17.868307 21.912209,17.97163 21.743024,17.590888 21.614342,17.670183 21.451355,17.770774 21.7687,18.159161 21.599723,18.249076 21.493462,18.305643 21.390955,17.97696 21.296365,18.051566 21.14839,18.168341 21.574616,18.427479 21.479108,18.590776 21.405699,18.716355 21.155394,18.564389 21.051794,18.666096 20.948346,18.767635 21.0684,18.992406 20.965494,19.094518 20.854762,19.204382 20.632968,19.088414 20.507293,19.180448 20.407363,19.253519 20.436337,19.44537 20.329786,19.508521 20.216166,19.575893 20.057912,19.551393 19.93396,19.505388 19.791654,19.452655 19.731483,19.249765 19.58491,19.210807 19.33053,19.143082 19.001335,19.173453 18.809506,19.354402 18.657786,19.497498 18.459749,19.893839 18.655851,19.964308 Z M 17.043031,11.730686 C 17.157093,11.566052 17.354912,11.444942 17.403025,11.249916 17.430373,11.141004 17.354908,11.029031 17.350185,10.916641 17.345059,10.795728 17.414016,10.669817 17.376441,10.554535 17.270881,10.227755 16.967374,9.9992674 16.71567,9.7675625 16.539932,9.6057691 16.335232,9.4777815 16.131225,9.3543268 16.001045,9.2755672 15.870178,9.1915066 15.725259,9.1466379 15.234435,8.9946635 14.709825,8.920347 14.197811,8.9513076 13.792715,8.9758022 13.399396,9.1125672 13.017396,9.2502171 12.756302,9.344294 12.511125,9.4789394 12.265097,9.6077673 11.986388,9.7537733 11.704097,9.897084 11.446353,10.07817 11.192621,10.256346 10.954965,10.459761 10.736137,10.680039 10.470463,10.947488 10.202619,11.223063 10.009876,11.548013 9.7946597,11.910881 9.6875913,12.329383 9.5463217,12.727649 9.4418828,13.022226 9.3924758,13.337498 9.2627103,13.62147 9.2121528,13.732156 9.0699243,13.810271 9.0718559,13.932275 9.075414,14.150785 9.2168394,14.503662 9.4318083,14.47893 9.5640073,14.463659 9.5547802,14.234775 9.5705842,14.101405 9.6028705,13.829651 9.3582044,13.531397 9.4762721,13.285211 9.5222156,13.189553 9.6872646,13.206735 9.7450999,13.118034 9.8265886,12.993107 9.7651166,12.8163 9.8098485,12.673633 9.8640695,12.501816 9.9383995,12.330461 10.051457,12.190852 10.138477,12.083447 10.263437,12.013916 10.375142,11.933077 10.537601,11.815461 10.778842,11.778377 10.878204,11.603167 10.961242,11.456814 10.767292,11.198015 10.901233,11.097104 11.027034,11.002399 11.22147,11.287898 11.358972,11.21155 11.529353,11.116937 11.393843,10.778361 11.543096,10.652579 11.661163,10.553048 11.854965,10.637648 12.000302,10.586465 12.199795,10.516253 12.407124,10.423185 12.547205,10.263729 12.621697,10.178978 12.582759,10.006141 12.68124,9.9519219 12.847458,9.8603839 13.081229,10.144052 13.242701,10.04438 13.347366,9.9798547 13.243136,9.7413999 13.354915,9.690582 13.59898,9.5794911 13.829285,10.068015 14.092191,10.016217 14.171531,10.00056 14.180859,9.8504573 14.261159,9.8409722 14.388658,9.8258854 14.458938,10.040999 14.587117,10.04898 14.74342,10.058662 14.854869,9.8524048 15.011274,9.8462102 15.216742,9.8381131 15.41289,9.9590202 15.588295,10.067702 15.718407,10.14818 15.811662,10.277773 15.927582,10.378 16.009159,10.448522 16.140025,10.481242 16.177987,10.582582 16.240489,10.749789 16.041497,10.938266 16.088546,11.110516 16.158241,11.366135 16.363512,11.600686 16.6002,11.715826 16.73326,11.780591 16.912228,11.799686 17.042934,11.730657 V 11.730657 Z M 11.481837,17.023132 C 11.294477,17.119016 11.069128,16.852869 10.863415,16.896196 10.572687,16.957402 10.31229,17.172723 10.135,17.412844 9.9918022,17.606714 9.9372355,17.86103 9.9066822,18.101096 9.8655692,18.424376 9.9088053,18.757291 9.9718985,19.077158 10.07979,19.624249 10.241455,20.17105 10.50224,20.663193 10.693483,21.024019 10.967392,21.337337 11.245192,21.635624 11.434259,21.838753 11.653736,22.011033 11.868474,22.186222 12.111474,22.38442 12.353305,22.58718 12.619858,22.751725 12.881531,22.913412 13.159542,23.049896 13.445503,23.161999 13.792141,23.297878 14.146533,23.439627 14.516311,23.476842 15.261321,23.551692 16.055869,23.556812 16.753214,23.283935 16.998293,23.188061 17.420628,23.061628 17.378628,22.799274 17.352061,22.633529 17.070999,22.601788 16.907531,22.63214 16.753074,22.660913 16.690914,22.872948 16.548497,22.93955 16.337804,23.038007 16.080406,22.977747 15.861074,23.054661 15.76961,23.086729 15.702324,23.180425 15.606741,23.196208 15.203748,23.262679 14.806812,23.018616 14.40039,22.975462 14.140962,22.947952 13.854365,23.064194 13.618422,22.95156 13.425371,22.859466 13.367104,22.594732 13.196838,22.464707 13.017356,22.327763 12.745945,22.333893 12.586978,22.17305 12.452627,22.037191 12.463904,21.801068 12.343667,21.652386 12.199879,21.474549 11.938315,21.419969 11.797588,21.239678 11.666056,21.071191 11.638983,20.84114 11.545468,20.648571 11.479183,20.512257 11.423069,20.366884 11.327099,20.24996 11.234499,20.137232 11.055621,20.101185 10.991795,19.96974 10.928833,19.840004 11.018193,19.675464 10.97805,19.536863 10.934676,19.386918 10.725289,19.288988 10.741018,19.133724 10.751313,19.032624 10.931476,19.009772 10.944745,18.909109 10.960845,18.786866 10.732422,18.694617 10.776812,18.579766 10.81677,18.47635 11.02528,18.557464 11.086827,18.465456 11.175057,18.333401 10.938886,18.074563 11.070977,17.987288 11.217521,17.890413 11.391613,18.298187 11.546554,18.2156 11.766064,18.09853 11.688804,17.721475 11.660137,17.472009 11.641883,17.311985 11.477792,17.184253 11.481811,17.023228 Z" />
  </g>
</svg>
